<?xml version="1.0" encoding="UTF-8"?>
<svg id="Layer_1" data-name="Layer 1" xmlns="http://www.w3.org/2000/svg" viewBox="0 0 1298.56 176.1">
  <g id="knriUO">
    <g>
      <path d="M736.38,48.72c-7.93,5.4-16.01,9.29-24.11,13.08-3.84,1.79-7.88,3.25-11.94,4.48-5.28,1.59-10.73,1.4-16.12,.51-2.56-.43-4.59-1.76-5.27-4.63-.48-2.06-1.28-4.05-1.93-6.02,1.21-1.35,2.45-1.95,4.02-2.05,9.95-.63,18.88-4.38,27.47-9.14,4.78-2.64,9.77-4.97,14.32-7.96,8.15-5.36,16.14-10.97,23.43-17.51,2.71-2.43,5.55-4.72,8.34-7.08,5.93,5.51,7.76,14.27,4.46,21.51-3.35,7.35-6.71,14.7-9.98,22.09-1.19,2.7-2.16,5.49-3.37,8.61,1.31,.15,2.26,.46,3.15,.34,7.55-1.03,14.38,1.2,20.63,5.05,12.16,7.5,20.78,17.89,24.72,31.84,.08,.27,.32,.5,.7,1.08,.5-1.01,.98-1.82,1.3-2.69,5.09-13.64,8.53-27.74,11.85-41.88,2.37-10.11,4.76-20.21,6.84-30.38,.93-4.51,1.12-9.18,1.71-14.24,3.18,2.07,4.34,4.91,4.43,8.01,.16,5.79,.41,11.56-.68,17.37-1.74,9.25-2.65,18.65-4.29,27.92-1.74,9.89-3.93,19.7-5.89,29.55-.06,.28,.15,.62,.34,1.32,.67-.06,1.46,.01,2.15-.2,9.19-2.84,17.78-7.17,26.66-10.79,2.3-.94,3.49-2.52,4.43-4.87,2.64-6.61,5.73-13.04,10.22-18.66,1.34-1.68,2.68-3.4,4.26-4.84,3.7-3.38,7.55-2.84,10.36,1.21,4.35,6.28,4.67,12.83,1.71,19.77-2.43,5.7-6.47,9.96-11.41,13.49-2.02,1.44-4.06,2.86-6.18,4.15-2.86,1.75-4.27,4.08-3.34,7.78,3.14,1.92,6.88,2.7,10.6,2.99,7.12,.55,14.2,.17,21.14-1.91,9.65-2.89,18.36-7.4,25.77-14.29,2.41-2.24,5-4.28,7.36-6.57,3.71-3.59,6.71-7.72,8.96-12.41,1.13-2.36,1.94-5,4.54-6.61,4.7,3.14,5.86,8.13,7,13.52-3.78,3.98-5.22,9.48-7.4,14.62-2.1,4.95-4.5,9.8-5.26,16.12,3.13-1.88,5.69-3.24,8.08-4.87,5.06-3.45,9.99-7.08,15.03-10.57,6.94-4.81,13.93-9.54,20.87-14.35,4.9-3.4,9.86-6.69,14.08-10.99,3.58-3.65,8.14-5.81,13.16-6.34,5.03-.53,9.54,1.14,12.62,5.45,1.53,2.14,2.8,4.48,4.25,6.83,1.03-.15,2.23-.69,3.13-.37,.99,.35,1.96,1.36,2.47,2.33,2.33,4.4,4.39,8.91,4.32,14.08-.07,5.3-.02,10.6-.02,16.44,4.96-3.78,9.66-7.03,13.99-10.72,7.68-6.56,15.13-13.38,22.67-20.1,1.21-1.08,2.35-2.26,3.53-3.39,4.02-3.82,6.83-8.13,8.22-13.76,1.41-5.72,4.27-11.08,6.49-16.6,4.74-11.78,11.91-22.08,19.6-32.04,1.38-1.78,3.39-3.07,5.3-4.75,3.1,4.91,4.51,10.34,2.17,16.38-4.65,12-9.63,23.81-16.16,34.99-4.02,6.88-8.5,13.38-13.16,19.79-.76,1.05-1.34,2.26-1.8,3.48-2.87,7.58-4.82,15.43-6.47,23.34-.53,2.54-.32,5.24-.48,8.42,1.5-.34,2.68-.32,3.53-.85,3.8-2.34,7.5-4.84,11.23-7.28,5.13-3.36,10.22-6.78,16.07-8.82,.78-.27,1.58-.52,2.38-.66,6.81-1.19,8.02-1.11,11.81,4.47,1.91,2.81,3.04,6.2,4.27,9.43,1.58,4.14,4.03,5.63,8.65,5.29,2.68-.2,5.18-1.05,7.3-2.37,3.92-2.42,7.7-5.16,11.2-8.16,9.81-8.4,17.11-18.89,23.96-29.71,1.91-3.02,3.76-6.07,5.83-9.41-1.75-.38-2.93-.8-4.13-.88-6.05-.44-12.12-.73-18.17-1.2-2.62-.2-5.28-.52-7.81-1.19-1.12-.3-2.48-1.42-2.85-2.47-.68-1.98-.89-4.18-.92-6.29,0-.66,1.1-1.74,1.86-1.92,2.23-.53,4.56-.99,6.84-.97,9.46,.08,18.93,.48,28.39,.46,3.17,0,6.46-.21,8.12-4.19,1.45-3.47,3.8-6.56,5.8-9.79,2.35-3.8,4.75-7.57,7.14-11.35,4.15-6.56,8.31-13.11,12.5-19.71,1.1,.6,1.72,1.81,2.16,3.35,1.58,5.63,1.3,11.15-.7,16.59-2.06,5.58-4.21,11.12-6.35,16.67-.94,2.44-1.94,4.87-2.9,7.28,1.67,1.19,3.15,1.39,5.16,1.18,5.28-.54,10.62-.54,15.93-.52,7.61,.03,15.23,.25,22.84,.46,1.94,.05,3.91,.24,5.81,.62,1.78,.35,3.29,2.35,3.29,3.92,0,1.78-1.06,2.67-2.62,3.2-1.41,.47-2.75,1.24-4.19,1.48-10.18,1.74-20.34,3.67-30.58,4.93-5.86,.72-11.86,.53-17.79,.34-3.19-.1-4.89,.9-5.95,3.89-3.48,9.78-7.64,19.33-9.9,29.98,1.04,.34,2.07,.97,3.08,.95,7.36-.2,14.41,1.65,21.55,2.98,9.72,1.81,19.48,3.37,29.18,5.3,4.98,.99,9.85,2.51,14.76,3.85,7.27,1.99,14.53,4.02,22.22,6.16,.02-2.61-1.65-4.01-2.78-5.3-8.48-9.66-8.71-20.9-5.87-32.37,1.8-7.29,7-12.64,14.19-14.87,5.66-1.76,11.73-1.45,17.25,1.4,4.34,2.24,5.16,9.17,1.5,12.21-.65,.54-1.7,.59-3.59,1.2,1.61-2.04,2.55-3.24,3.58-4.55-13.69-3.61-26.65,2.72-31.04,16.38,1.71,4.26,4.59,7.9,7.8,11.25,3,3.13,5.64,6.52,7.37,10.47,2.43,5.55,3.74,11.27,1.86,17.36-.51,1.64-1.3,2.7-2.86,3.05-2.02,.47-4.11,1.14-6.13,1-4.57-.32-9.16-.84-13.66-1.7-9.83-1.89-19.55-4.29-29.47-5.81-11.38-1.74-22.85-3.01-34.08-5.71-1.08-.26-2.28-.03-3.66-.03-.43,2.04-.77,4.13-1.34,6.16-.4,1.41-.92,2.88-1.77,4.05-1.73,2.41-4.91,2.55-6.84,.27-1.48-1.76-2.95-3.68-3.79-5.79-4.52-11.34-5.6-23.22-4.1-35.19,.77-6.17,2.95-12.17,4.46-18.26,.15-.6,.08-1.26-.49-2.18-1.35,2.1-2.76,4.17-4.05,6.3-3.33,5.51-6.34,11.22-9.96,16.53-4.47,6.56-9,13.17-14.29,19.05-5.94,6.6-12.39,12.74-21.48,15.35-6.86,1.97-13.11-.61-15.33-7.69-1.03-3.29-2.12-6.64-3.74-9.66-2.17-4.03-3.81-4.24-8.17-3.28-6.03,1.33-10.88,4.78-15.74,8.19-4.46,3.14-8.68,6.62-13.07,9.86-1.03,.76-2.29,1.28-3.52,1.7-3.94,1.38-5.65,.74-7.86-2.75-2.3-3.63-2.77-7.81-3-11.88-.34-5.95-.64-11.96,.78-17.86,.11-.45-.08-.96-.18-1.95-1.04,.91-1.81,1.61-2.61,2.29-8.41,7.22-16.78,14.49-25.24,21.64-3.28,2.77-6.83,5.24-10.17,7.95-1.52,1.24-2.6,2.57-2.93,4.9-.92,6.5-2.03,13-4.71,19.13-2.73,6.23-5.76,12.16-10.49,17.19-2.15,2.29-4.06,4.74-6.8,6.42-5.51,3.4-11.58,4.06-17.72,3.17-3.05-.44-5.82-2.24-7.46-5.31-2.27-4.24-4.6-8.4-4.76-13.4-.09-2.84,.67-5.26,2.78-7.17,3.93-3.54,7.73-7.24,11.87-10.53,8.16-6.5,16.53-12.71,24.74-19.15,2.73-2.14,5.02-4.41,5.1-8.56,.1-5.39,1.17-10.77,1.92-16.95-2.84,2-4.52,3.94-6.09,5.95-5.49,7.03-10.86,14.16-17.98,19.7-2.62,2.04-5.31,3.78-8.55,4.88-3.81,1.29-7.15,.86-10.43-1.15-.81-.5-1.72-1.14-2.13-1.95-2.95-5.73-6.6-11.23-6.27-18.1,.01-.26-.31-.54-.64-1.09-.78,.56-1.57,1.07-2.29,1.66-7.19,5.84-14.27,11.83-21.59,17.5-3.79,2.93-8.17,5.03-12.71,6.61-3.88,1.35-7.2-.04-9.14-3.78-2.06-3.96-4.2-7.92-4.75-12.46-.17-1.39-.27-2.8-.41-4.3-2.02,1.43-4.07,2.95-6.18,4.37-11.48,7.74-24.12,11.34-37.95,10.46-2.77-.18-5.55-.79-8.22-1.54-5.09-1.43-8.57-4.89-10.91-9.54-1.41-2.79-2.72-5.62-4.15-8.58-6.36,3.68-13.07,6.31-19.86,8.72-4.97,1.76-9.97,3.42-14.99,5.04-2.43,.78-3.27,2.83-3.83,4.87-1.87,6.82-3.71,13.66-5.25,20.56-1.72,7.69-3.1,15.45-4.65,23.3-1.63,.11-2.34-1.39-3.09-2.56-5.11-7.92-6.7-16.48-4.53-25.7,1.13-4.81,2.18-9.64,3.21-14.47,.17-.79,.02-1.64,.02-2.95-4.5-.06-8.95,.09-13.37-.24-6.58-.49-13.25-.78-19.67-2.15-8.62-1.84-15.3-6.92-19.72-14.72-.4-.7-.92-1.33-1.59-2.28-.57,.93-1.14,1.55-1.35,2.27-2.04,6.94-4.02,13.9-6,20.85-.09,.32-.23,.72-.11,.98,1.58,3.46-.78,6.2-1.63,9.22-.85,3.01-1.54,6.07-2.57,9.02-.39,1.14-1.51,2.02-2.58,3.37-1.01-1.19-1.83-1.96-2.41-2.88-2.5-3.96-4.18-8.28-5.37-12.78-.33-1.25-.56-2.7-.27-3.92,2.19-9.12,4.42-18.23,6.85-27.28,1.88-7,3.84-14,6.21-20.84,3.02-8.73,6.49-17.31,9.74-25.97,.5-1.32,.83-2.7,1.24-4.05Zm1.62,48.9c2.78,1.25,5.1,2.44,7.53,3.37,7.17,2.75,14.72,2.97,22.26,3.07,4.98,.07,9.96,0,14.94-.02,1.66,0,3.32-.07,4.98-.16,1.62-.09,2.63-1.06,2.21-2.6-.77-2.82-1.15-5.7-3.02-8.27-3.7-5.08-8.71-8.51-13.68-12.08-3.72-2.67-7.94-4.06-12.31-4.83-4.99-.88-9.74-.39-13.84,3.41-5.21,4.82-8.47,10.43-9.07,18.1Zm232.93,11.44c1.31-.13,1.98-.08,2.57-.27,7.12-2.35,12.52-7.16,17.56-12.43,2.4-2.51,4.65-5.15,6.92-7.78,2.34-2.7,4.62-5.44,6.9-8.14-3.71-3.73-3.73-3.77-8.19-1.82-1.48,.65-2.9,1.49-4.26,2.37-6.6,4.28-11.67,10.11-16.04,16.53-2.27,3.33-4.7,6.73-5.46,11.54Z"/>
      <path d="M555.46,78.84c-1.36,10.8-6.32,19.46-12.27,27.74-4.54,6.31-8.6,12.97-13.16,19.27-3.39,4.67-6.67,9.52-11.84,12.59-4.52,2.69-8.64,1.3-9.89-3.78-.94-3.84-1.79-7.78-1.94-11.71-.14-3.58,.5-7.24,1.2-10.79,.95-4.84,2.28-9.6,3.41-14.41,.1-.42-.12-.92-.15-1.11-5.17,6.67-10.27,13.55-15.69,20.16-6.34,7.72-13.68,14.45-21.81,20.24-1.97,1.4-4.35,2.64-6.7,3.01-5.74,.92-9.89-.61-11.54-6.22-1.54-5.24-3.61-10.43-2.84-16,.63-4.55,1.58-9.09,2.78-13.52,1.37-5.05,3.18-9.99,4.99-15.55-4.78,1.89-9.13,3.61-13.49,5.32-.76,.3-1.53,.58-2.3,.84-7.02,2.34-14,4.8-21.07,6.98-4.58,1.41-9.34,1.59-14.12,1.13-.66-.06-1.33,0-2.17,0-1.65,3.18-3.16,6.45-5,9.53-3.47,5.81-7.04,11.57-10.74,17.24-2.19,3.36-5.09,6.04-8.64,8.05-6.26,3.57-14.82,.24-16.63-6.14-.76-2.69-2.44-5.13-3.12-7.83-.68-2.69-.64-5.56-.98-8.94-2.5,2.13-4.63,4.28-6.45,6.67-3.75,4.9-8.33,8.94-13.2,12.62-2.06,1.56-4.68,2.51-7.17,3.32-4.29,1.39-7.81-.16-10.06-4.13-.9-1.59-1.72-3.23-2.46-4.9-2.24-5.06-1.96-10.32-.68-15.47,1.75-7.04,3.96-13.96,5.82-20.97,.49-1.86,.43-3.86,.66-6.15-2.57-1.01-4.78-2.44-7.11-2.67-5.47-.55-10.59-2.27-15.99-4.08-1.02,2-2.09,3.85-2.92,5.8-4.28,10.13-10.36,19.22-16.89,27.93-4.75,6.34-10.11,12.25-16.52,17.16-3.63,2.78-7.63,4.62-11.71,6.35-4.08,1.73-9.78,.11-12.56-3.35-6.03-7.49-8.02-15.84-4.84-25.11,2.3-6.71,4.71-13.38,7.05-20.08,.16-.44,.17-.94,.34-1.88-6.79-3.55-14.4-2.22-21.55-3.58-2.42,9.25-6.53,17.55-13.51,24.29-4.38,4.23-8.43,8.83-12.98,12.86-3.95,3.5-8.27,6.62-12.69,9.52-2.13,1.4-4.8,2.35-7.34,2.7-4.33,.61-7.92-1.56-10.23-5.01-2.95-4.41-5.13-9.35-6.3-14.54-.53-2.33,.11-4.92,.26-7.39,.05-.78,.22-1.55,.39-2.73-4.94,5.23-9.48,10.15-14.15,14.94-3.33,3.41-6.72,6.77-10.3,9.91-1.96,1.73-4.29,3.09-6.59,4.37-3.15,1.74-7.77,1.07-9.95-1.85-4.59-6.15-7.4-12.78-5.02-20.82,2.61-8.8,6.3-16.98,11.88-24.29,3.81-5,8.61-9.05,14.51-10.78,6.7-1.96,12.99,.1,16.6,6.52,.49,.86,.91,1.76,1.47,2.85,2.46-2.04,4.63-4.21,6.23-6.95,1.5-2.56,3.15-5.04,4.84-7.74,3.83,3.57,5.31,8.22,6.27,13.08,.14,.7-.5,1.53-.71,2.32-2.28,8.6-4.58,17.2-6.77,25.82-.35,1.36-.2,2.85-.29,4.55,2.8-.4,4.84-1.14,6.87-2.33,6.34-3.7,11.92-8.35,17.29-13.29,3.03-2.79,6.14-5.49,9.14-8.3,3.52-3.29,6.58-6.96,8.71-10.96-1.43-3.23-2.72-6.09-3.97-8.96-1.61-3.72-1.48-7.4,.28-11.06,2.36-4.89,7.7-5.55,10.99-1.09,1.64,2.23,2.86,4.84,3.89,7.43,2.03,5.12,2.17,5.25,7.88,5.63,2.78,.19,5.65,.43,8.28,1.28,3.77,1.21,6.43,4.14,8.43,7.43,2.97,4.88,4.68,10.46,4.71,16.01,.03,5.27-1.09,10.66-3.33,15.69-1.12,2.51-1.65,5.28-2.6,8.45,1.46-.09,2.41,.02,3.24-.23,5.13-1.59,9.63-4.37,13.69-7.8,12.81-10.81,22.19-24.33,30.55-38.79-3.71-6.11-9.16-11.59-6.83-19.65,5.88-1.88,11.06,1.24,14.61,7.45,1.06,1.85,1.76,3.92,2.5,5.94,.69,1.88,1.7,3.03,3.92,3.16,2.46,.14,4.88,.79,7.34,1.07,5.6,.63,9.35,4,12.06,8.51,5.06,8.42,6.94,17.47,4.5,27.18-.97,3.83-1.94,7.66-2.84,11.51-.25,1.08-.29,2.21-.48,3.8,4.73-1.21,7.98-3.94,11.2-6.64,8.15-6.83,15.13-14.81,21.79-23.04,3-3.7,5.31-7.96,7.88-11.99,.43-.68,.45-1.63,.91-2.28,1.23-1.75,2.58-3.41,3.96-5.19,3.92,1.13,3.2,5.62,5.85,7.92,2.58-5.62,7.07-8.96,12.44-11.37,5.17-2.32,9.25-1.13,12.21,3.83,2.23,3.75,3.65,7.77,3.99,12.15,.07,.96,.3,1.9,.5,3.1,10.19-.9,19.33-4.72,28.74-7.51,9.52-2.82,18.76-6.28,27.19-12.02,3.61,3.22,3.86,7.65,4.35,11.81,.53,4.51-.97,8.85-2.34,13.1-2.57,7.99-5.28,15.93-7.89,23.9-.39,1.19-.49,2.48-.79,4.07,4.11,.46,7.15-1.4,9.88-3.24,4.49-3.03,8.88-6.33,12.85-10.01,4.73-4.4,9.16-9.17,13.36-14.08,5.27-6.16,10.14-12.66,15.27-18.93,1.13-1.38,2.65-2.44,4.14-3.78,2.84,3.29,3.3,7.03,3.68,10.79,.91,8.93-1.46,17.43-3.42,25.98-.7,3.05-1.68,6.04-2.4,9.08-.22,.92-.03,1.94-.03,3.26,3.28-.87,5.01-3.38,6.95-5.37,7.57-7.73,13.06-17.12,19.82-25.5,.93-1.16,1.82-2.38,2.88-3.4,4.15-3.99,7.11-8.65,8.52-14.28,.36-1.44,1-2.8,1.49-4.21,1.17-3.33,2.13-3.84,5.46-3.06,3.47,.81,6.98,1.47,10.45,2.32,7.58,1.87,15.31,1.62,23.02,1.68,4.81,.04,9.63,.14,14.42-.15,7.42-.45,14.83-1.21,22.24-1.83,.66-.06,1.33,0,2-.04,5.26-.22,6.43,.8,6.44,6.2,0,2.29-.5,4.58-.78,6.87-.25,1.99-1.36,2.65-3.38,2.78-10.06,.64-20.11,1.91-30.17,2.09-14.3,.26-28.66,.29-42.51-4.28-1.39-.46-2.71-1.14-4.67-1.98Zm-173.99,7.95c-3.08,11.63-8.81,22.67-11.17,34.93,2.81,1.02,4.96-.13,7.05-1.51,7.09-4.7,11.51-11.61,15.75-18.77-2.42-2.43-6.51-2.36-8.02-5.68-1.36-2.97-2.45-6.06-3.61-8.97Zm-222.44-1.01c-.13-.3-.26-.61-.4-.91-1.14,0-2.29,.01-3.43,0-4.12-.05-7.38,1.53-10.77,4.03-7.09,5.21-11.28,12.28-14.85,19.94-.87,1.87-1.7,3.76-2.85,6.33,3.83-1.77,6.43-3.73,8.77-6.04,4.68-4.62,9.3-9.31,13.97-13.94,3.17-3.15,6.37-6.27,9.56-9.4Zm241.27,2.33q2.46-3.01,2.29-6.23c-4.02,.2-6.77,2.52-10.08,5.33,2.99,1.16,5.44,.85,7.79,.9Z"/>
      <path d="M127.02,69.62c-3.31,3.3-7.56,3.88-11.44,4.89-6.42,1.66-12.99,2.74-19.53,3.9-3.74,.66-7.53,1.06-11.31,1.45-4.94,.51-9.89,.89-15.25,1.37-1.08,3.91-2.19,7.99-3.33,12.07-2.41,8.59-5.53,16.88-9.96,24.68-2.6,4.57-4.64,9.46-7.05,14.15-2.11,4.1-4.41,8.11-6.6,12.18-1.4,2.59-3.47,4.4-6.16,5.52-2.66-.22-4.04-2.02-5.11-4.18-.22-.44-.33-.95-.59-1.37-3.52-5.56-2.87-10.56,1.81-15.19,1.04-1.02,1.81-2.38,2.49-3.69,5.54-10.72,11.05-21.45,16.52-32.2,1.56-3.07,2.96-6.22,4.59-9.66-3.28-1.32-6.49-.49-9.66-.21-1.48,.13-2.94,.44-4.41,.54-5.95,.4-11.9,.76-17.85,1.13-7.05,.43-14.1,.86-20.98,1.27-.7-.92-1.18-1.4-1.47-1.97-2.55-4.94-2.82-6.48,3.24-7.81,7.05-1.54,14.19-2.4,21.3-3.42,4.08-.59,8.16-1.17,12.24-1.71,3.27-.44,6.54-.84,9.82-1.23,3.28-.39,6.56-.78,9.85-1.08,1.77-.16,2.65-1.01,2.95-2.75,1.34-7.81,2.54-15.63,3.15-23.54,.7-9.05,1.56-18.09,2.39-27.61,.84,0,2.19-.31,3.33,.05,5.4,1.73,10.91,.69,16.33,.55,5.41-.13,10.81-1.12,16.2-1.77,1.8-.22,3.58-.62,5.38-.82,8.63-.94,17.18-2.4,25.57-4.62,3.62-.96,7.07-2.59,10.56-4.03,3.5-1.45,6.94-3.03,10.33-4.52,2.99,2.21,4.03,5.08,4.67,8.35-6.43,4.7-12.26,10.07-19.76,13.04-5.83,2.32-11.74,4.33-17.91,5.49-7.05,1.33-14.08,2.83-21.18,3.83-4.88,.69-9.86,.78-14.8,.9-3.87,.1-7.74-.17-11.98-.28-.08,.96-.28,2.22-.29,3.49-.03,3.33,.24,6.68-.01,9.99-.44,5.75-1.21,11.48-1.77,17.22-.14,1.46-.02,2.95-.02,4.93,1.97,0,3.93,.21,5.83-.04,6.48-.83,12.91-2.03,19.41-2.68,6.75-.68,13.55-1.09,20.34-1.24,6.23-.14,6.91,.5,10.16,6.62Z"/>
      <path d="M937.65,43.98c5.79,1.35,10.12,4.4,14.42,8.82-1.34,.27-2.19,.5-3.05,.6-1.01,.12-2.8,.75-3.8,.91-4.08,.63-5.16,1.25-7.1,6.76-3.24-5.34-3.36-12.53-.47-17.09Z"/>
    </g>
  </g>
</svg>